<!DOCTYPE svg PUBLIC "-//W3C//DTD SVG 20010904//EN" "http://www.w3.org/TR/2001/REC-SVG-20010904/DTD/svg10.dtd">
<svg version="1.0" xmlns="http://www.w3.org/2000/svg" width="476px" height="427px" viewBox="0 0 4760 4270" preserveAspectRatio="xMidYMid meet">
<g id="layer101" fill="#000000" stroke="none">
 <path d="M1090 3939 l0 -71 -60 4 c-33 1 -60 0 -60 -4 0 -5 27 -8 60 -8 l60 0 0 -50 0 -50 -50 0 c-27 0 -50 -4 -50 -9 0 -15 212 -18 230 -4 12 11 11 13 -9 13 -18 0 -21 3 -13 13 7 9 1 21 -24 47 -39 39 -42 35 -14 -20 l20 -40 -30 0 c-29 0 -30 1 -30 50 l0 50 48 0 c26 0 53 -5 58 -10 8 -8 15 -6 24 5 11 13 4 15 -59 15 l-71 0 0 70 c0 56 -3 70 -15 70 -12 0 -15 -15 -15 -71z"/>
 <path d="M1790 3965 c0 -45 0 -45 -34 -45 -19 0 -38 -4 -41 -10 -4 -6 10 -10 34 -10 34 0 41 -3 41 -19 0 -15 -8 -21 -32 -24 l-33 -4 33 -1 c27 -2 32 -6 32 -28 0 -23 -3 -25 -37 -22 -32 3 -38 7 -51 43 -7 22 -17 65 -20 95 -5 39 -11 55 -22 55 -11 0 -14 -9 -12 -33 1 -22 -3 -34 -13 -39 -13 -5 -12 -8 5 -17 13 -6 34 -38 49 -73 14 -35 30 -63 34 -63 5 0 5 5 2 10 -4 6 5 10 21 10 27 0 28 -3 9 -55 -5 -15 -1 -14 19 8 15 16 24 33 21 38 -4 5 -1 9 5 9 6 0 18 -16 26 -35 8 -19 18 -35 24 -35 14 0 22 18 10 25 -5 3 -15 15 -21 27 -10 18 -9 19 19 13 18 -3 33 -2 37 4 4 7 -8 11 -34 11 -37 0 -41 2 -41 25 0 26 18 33 36 15 8 -8 15 -6 24 5 11 13 8 15 -24 15 -30 0 -36 3 -36 21 0 19 4 21 34 16 24 -4 39 -1 47 9 10 12 4 14 -35 14 l-46 0 0 39 c0 25 -5 41 -15 45 -12 4 -15 -4 -15 -39z"/>
 <path d="M3060 3980 l0 -31 -45 26 c-25 15 -50 25 -57 23 -8 -3 -3 -10 12 -18 14 -7 38 -24 53 -39 l29 -26 -54 -6 -53 -6 58 -1 c66 -2 77 -19 15 -25 l-43 -4 43 -1 c60 -3 52 -22 -10 -23 -51 -2 -52 -2 -14 -8 32 -5 37 -8 25 -18 -8 -6 -32 -13 -54 -16 -36 -3 -35 -4 13 -5 l52 -2 0 -36 c0 -45 24 -42 28 4 4 44 22 40 22 -4 0 -29 3 -35 16 -30 9 3 17 6 18 6 2 0 1 12 -1 28 l-4 27 16 -29 c12 -20 20 -25 28 -17 7 7 5 16 -8 31 -14 16 -15 20 -4 20 8 0 20 -5 27 -12 10 -10 16 -8 29 5 16 16 15 17 -30 17 -27 0 -46 4 -43 9 4 5 0 12 -6 14 -9 4 -8 6 2 6 9 1 21 -4 26 -9 8 -8 15 -6 24 5 11 13 9 15 -10 15 -19 0 -20 2 -10 15 11 13 7 15 -24 15 -20 0 -36 5 -36 10 0 13 63 13 76 0 8 -8 15 -6 24 5 11 13 6 15 -41 15 l-54 1 28 24 c15 13 43 27 62 31 19 3 32 10 29 15 -10 17 -49 9 -86 -16 l-37 -25 -3 32 c-4 43 -28 50 -28 8z m65 -120 c3 -5 -3 -10 -14 -10 -12 0 -21 5 -21 10 0 6 6 10 14 10 8 0 18 -4 21 -10z m-31 -35 c4 -11 -2 -15 -24 -15 -22 0 -28 4 -24 15 4 8 14 15 24 15 10 0 20 -7 24 -15z"/>
 <path d="M3606 4002 c5 -4 27 -21 49 -38 l40 -29 -45 -6 -45 -6 58 -1 c45 -2 57 -5 57 -18 0 -14 -7 -15 -40 -10 l-40 6 0 -45 0 -45 -27 17 c-25 17 -25 15 9 -35 20 -28 38 -57 40 -64 3 -7 12 -9 23 -4 14 5 16 9 7 18 -19 19 -14 28 13 28 28 0 29 -3 15 -31 -12 -22 -7 -24 21 -9 10 6 19 17 19 25 0 17 41 20 56 5 8 -8 15 -6 24 5 11 13 6 15 -39 15 -30 0 -51 4 -51 11 0 6 15 9 35 8 19 -2 40 2 47 9 9 9 2 12 -35 12 -28 0 -47 5 -47 11 0 8 13 9 39 5 23 -3 42 -2 46 4 4 6 -11 10 -39 10 -27 0 -46 5 -46 11 0 7 18 10 47 7 31 -2 48 1 50 10 3 8 -11 12 -49 12 -42 0 -55 4 -55 15 0 18 57 21 73 5 8 -8 15 -6 24 5 11 13 7 15 -36 15 -44 0 -46 1 -28 15 10 8 34 17 51 21 18 3 30 10 27 15 -10 17 -53 9 -83 -17 l-31 -26 0 36 c0 20 -4 36 -10 36 -5 0 -10 -13 -10 -30 0 -30 -13 -40 -25 -20 -4 6 -24 19 -45 30 -40 21 -61 26 -44 12z m124 -142 c0 -5 -13 -10 -30 -10 -16 0 -30 5 -30 10 0 6 14 10 30 10 17 0 30 -4 30 -10z m0 -30 c0 -5 -13 -10 -30 -10 -16 0 -30 5 -30 10 0 6 14 10 30 10 17 0 30 -4 30 -10z m0 -40 c0 -5 -13 -10 -30 -10 -16 0 -30 5 -30 10 0 6 14 10 30 10 17 0 30 -4 30 -10z"/>
 <path d="M340 3981 c36 -19 84 -86 96 -133 l6 -28 -56 0 c-31 0 -56 -4 -56 -10 0 -5 25 -10 55 -10 l55 0 0 -41 c0 -33 3 -40 16 -35 9 3 17 6 19 6 1 0 -1 16 -5 36 l-8 36 59 -4 c42 -3 63 0 71 9 8 10 -1 13 -51 13 l-61 0 15 37 c19 44 48 78 89 104 l29 18 -27 7 c-19 4 -33 1 -48 -12 -24 -22 -67 -109 -69 -139 0 -11 -6 2 -14 30 -12 46 -12 50 6 63 10 7 19 22 19 33 0 26 -8 24 -32 -7 -13 -16 -23 -22 -28 -15 -13 22 -74 61 -94 61 -16 0 -12 -5 14 -19z"/>
 <path d="M2350 3944 l0 -55 -29 20 c-43 31 -49 26 -14 -11 39 -43 83 -109 83 -127 0 -10 -12 -12 -50 -9 -27 3 -50 1 -50 -3 0 -5 51 -9 114 -9 69 0 117 -4 121 -10 5 -8 11 -7 21 1 24 20 16 24 -51 24 l-65 0 -26 43 -26 44 68 -4 c51 -2 69 0 68 10 -1 6 -2 41 -2 77 -1 36 -6 65 -12 65 -5 0 -10 -7 -10 -15 0 -12 -13 -15 -60 -15 -47 0 -60 3 -60 15 0 8 -4 15 -10 15 -5 0 -10 -25 -10 -56z m140 -34 l0 -50 -60 0 -60 0 0 50 0 50 60 0 60 0 0 -50z"/>
 <path d="M4260 3868 l0 -133 122 2 121 1 -2 128 c-2 120 -8 156 -18 127 -6 -16 -193 -18 -193 -3 0 6 -7 10 -15 10 -13 0 -15 -21 -15 -132z m122 85 c-12 -3 -28 -13 -35 -24 -6 -10 -22 -19 -34 -19 -18 0 -23 6 -23 25 0 24 2 25 58 24 31 -1 47 -4 34 -6z m98 -18 c0 -20 -5 -25 -25 -25 -20 0 -25 5 -25 25 0 20 5 25 25 25 20 0 25 -5 25 -25z m-70 -10 c0 -10 -10 -15 -32 -15 -30 0 -31 1 -12 15 25 19 44 19 44 0z m-106 -40 c-4 -8 -1 -15 5 -15 6 0 11 -17 11 -40 0 -38 1 -40 25 -34 15 4 25 2 25 -5 0 -6 -17 -12 -37 -13 l-38 -1 38 -4 c50 -6 48 -23 -3 -23 l-40 0 0 75 c0 42 4 75 10 75 5 0 7 -7 4 -15z m89 8 c-13 -2 -35 -2 -50 0 -16 2 -5 4 22 4 28 0 40 -2 28 -4z m87 -68 l0 -75 -41 0 c-26 0 -38 4 -33 11 3 6 17 8 29 5 13 -3 27 -2 30 4 4 6 -10 10 -34 10 -23 0 -41 5 -41 11 0 6 14 9 33 7 29 -3 32 -1 29 23 -3 25 13 79 23 79 3 0 5 -34 5 -75z"/>
 <path d="M1032 3810 c-11 -22 -16 -40 -12 -40 10 0 50 45 50 58 0 28 -20 18 -38 -18z"/>
 <path d="M1638 3820 c-18 -32 -14 -37 15 -16 17 13 24 46 10 46 -5 0 -16 -14 -25 -30z"/>
 <path d="M1666 3765 c-22 -33 -20 -37 9 -23 25 11 33 32 16 42 -5 3 -16 -5 -25 -19z"/>
 <path d="M2985 3770 c-18 -20 -11 -25 19 -14 17 6 23 34 8 34 -5 0 -17 -9 -27 -20z"/>
 <path d="M783 3550 c-48 -29 -67 -65 -67 -124 0 -95 49 -146 138 -146 51 0 110 39 90 59 -7 8 -17 4 -34 -14 -17 -18 -34 -25 -60 -25 -97 0 -131 155 -49 224 41 35 74 33 109 -4 20 -21 31 -27 36 -19 4 7 -6 24 -25 41 -38 34 -91 37 -138 8z"/>
 <path d="M1451 3552 c-88 -48 -96 -187 -15 -251 40 -32 113 -29 154 5 19 17 28 30 22 36 -6 6 -19 0 -35 -16 -44 -44 -113 -32 -142 24 -41 80 8 200 83 200 13 0 37 -14 54 -31 38 -38 60 -25 26 16 -32 36 -98 44 -147 17z"/>
 <path d="M1875 3538 c-8 -20 -28 -69 -44 -110 l-30 -73 0 103 c-1 84 -4 102 -16 102 -13 0 -15 -22 -15 -140 0 -139 0 -140 23 -140 19 0 28 14 61 100 21 55 42 100 46 100 4 0 25 -45 46 -100 33 -86 42 -100 61 -100 23 0 23 1 23 140 0 133 -1 140 -20 140 -19 0 -20 -7 -21 -112 l0 -113 -45 115 c-25 63 -47 117 -50 119 -2 2 -10 -12 -19 -31z"/>
 <path d="M3330 3548 c-64 -43 -86 -121 -56 -193 31 -73 145 -101 203 -51 20 18 25 28 17 35 -7 8 -17 4 -34 -14 -33 -35 -88 -34 -123 1 -86 86 -3 262 100 212 23 -11 29 -20 31 -56 2 -28 8 -42 18 -42 10 0 14 12 14 45 0 37 -4 47 -25 61 -43 28 -105 29 -145 2z"/>
 <path d="M3833 3550 c-48 -29 -66 -72 -61 -143 4 -54 8 -63 41 -93 31 -29 44 -34 86 -34 79 0 131 56 131 142 0 112 -108 183 -197 128z m117 -27 c75 -68 38 -223 -53 -223 -50 0 -79 36 -85 105 -5 66 11 110 47 130 38 21 57 18 91 -12z"/>
 <path d="M4125 3558 c-40 -22 -45 -38 -45 -160 0 -95 3 -118 14 -118 11 0 15 24 18 115 3 128 13 148 69 148 51 0 59 -21 59 -150 0 -69 4 -113 10 -113 6 0 10 48 10 124 0 123 0 125 -26 145 -29 23 -77 27 -109 9z"/>
 <path d="M320 3419 l0 -141 64 4 c85 5 116 26 116 78 0 50 -27 70 -92 70 l-48 0 0 65 c0 58 -2 65 -20 65 -19 0 -20 -7 -20 -141z m121 -19 c22 -12 26 -59 7 -78 -7 -7 -29 -12 -50 -12 l-38 0 0 50 c0 49 1 50 31 50 17 0 39 -5 50 -10z"/>
 <path d="M480 3555 c0 -10 102 -260 109 -268 6 -6 46 81 118 261 3 7 -3 12 -16 12 -15 0 -26 -11 -37 -40 -16 -39 -17 -40 -66 -40 -49 0 -50 1 -65 40 -9 22 -22 40 -30 40 -7 0 -13 -2 -13 -5z m150 -99 c0 -2 -10 -26 -21 -53 l-21 -48 -13 30 c-31 73 -30 75 14 75 23 0 41 -2 41 -4z"/>
 <path d="M990 3420 c0 -133 1 -140 20 -140 19 0 20 7 20 140 0 133 -1 140 -20 140 -19 0 -20 -7 -20 -140z"/>
 <path d="M1090 3420 l0 -140 80 0 c64 0 80 3 80 15 0 12 -13 15 -60 15 l-60 0 0 50 0 50 55 0 c30 0 55 5 55 10 0 6 -25 10 -55 10 l-55 0 0 65 c0 58 -2 65 -20 65 -19 0 -20 -7 -20 -140z"/>
 <path d="M1290 3420 c0 -133 1 -140 20 -140 19 0 20 7 20 140 0 133 -1 140 -20 140 -19 0 -20 -7 -20 -140z"/>
 <path d="M2108 3420 c31 -77 58 -140 61 -140 6 0 111 259 111 273 0 4 -8 7 -17 7 -11 0 -24 -15 -35 -40 -16 -39 -18 -40 -66 -40 -49 0 -50 1 -66 40 -9 22 -22 40 -30 40 -10 0 2 -39 42 -140z m92 33 c0 -11 -39 -110 -40 -101 0 4 -9 30 -20 58 l-20 50 40 0 c22 0 40 -3 40 -7z"/>
 <path d="M2310 3419 l0 -142 70 5 c56 4 76 10 95 28 45 43 26 104 -36 117 l-28 5 45 64 c45 63 45 64 20 64 -20 0 -34 -13 -66 -60 -58 -85 -59 -90 -18 -90 36 0 68 -24 68 -52 0 -25 -35 -48 -73 -48 l-37 0 0 125 c0 118 -1 125 -20 125 -19 0 -20 -7 -20 -141z"/>
 <path d="M2550 3420 l0 -140 40 0 c92 0 150 54 119 109 -15 26 -15 29 7 55 31 35 30 61 -1 91 -21 22 -33 25 -95 25 l-70 0 0 -140z m131 99 c38 -38 3 -89 -63 -89 l-38 0 0 55 0 55 40 0 c27 0 47 -7 61 -21z m-19 -126 c38 -34 11 -83 -48 -83 l-34 0 0 50 c0 49 0 50 32 50 17 0 40 -7 50 -17z"/>
 <path d="M2780 3420 c0 -133 1 -140 20 -140 19 0 20 7 20 130 l0 130 50 0 c28 0 50 5 50 10 0 6 -30 10 -70 10 l-70 0 0 -140z"/>
 <path d="M2950 3420 l0 -140 80 0 c64 0 80 3 80 15 0 12 -13 15 -60 15 l-60 0 0 50 0 50 55 0 c30 0 55 5 55 10 0 6 -25 10 -55 10 l-55 0 0 55 0 55 60 0 c33 0 60 4 60 10 0 6 -33 10 -80 10 l-80 0 0 -140z"/>
 <path d="M3550 3419 l0 -142 70 5 c56 4 76 10 95 28 45 43 26 104 -36 117 l-28 5 45 64 c45 63 45 64 20 64 -20 0 -34 -13 -66 -60 -58 -85 -59 -90 -18 -90 36 0 68 -24 68 -52 0 -25 -35 -48 -73 -48 l-37 0 0 125 c0 118 -1 125 -20 125 -19 0 -20 -7 -20 -141z"/>
 <path d="M4330 3420 l0 -140 43 0 c93 0 137 27 137 84 0 42 -32 66 -90 66 l-50 0 0 65 c0 58 -2 65 -20 65 -19 0 -20 -7 -20 -140z m124 -26 c22 -21 20 -61 -3 -74 -11 -5 -33 -10 -50 -10 -30 0 -31 1 -31 50 l0 50 34 0 c19 0 42 -7 50 -16z"/>
 <path d="M300 1645 l0 -1105 491 0 490 0 87 36 c295 122 479 316 543 574 21 82 18 326 -5 415 -79 306 -306 517 -653 606 -42 10 -82 19 -90 19 -10 0 -13 -55 -13 -295 l0 -295 -45 0 -45 0 0 575 0 575 -380 0 -380 0 0 -1105z"/>
 <path d="M1150 2515 l0 -235 28 -6 c322 -71 552 -212 693 -422 28 -43 53 -79 55 -81 2 -2 4 217 4 487 l0 492 -390 0 -390 0 0 -235z"/>
 <path d="M2808 2239 l-3 -510 -219 206 -220 206 -49 -48 c-27 -26 -121 -123 -208 -215 l-160 -167 25 -79 c57 -182 56 -402 -3 -579 -63 -186 -204 -352 -396 -466 l-70 -42 215 -3 215 -2 214 221 214 221 221 -221 221 -221 425 0 425 1 -100 52 c-146 76 -247 149 -356 257 -336 335 -426 795 -240 1230 106 247 349 498 613 631 32 16 58 31 58 34 0 3 -184 5 -410 5 l-410 0 -2 -511z"/>
 <path d="M3805 2716 c-424 -155 -723 -458 -822 -835 -22 -83 -26 -117 -26 -251 0 -127 4 -169 21 -232 53 -196 135 -333 286 -484 158 -158 338 -266 563 -338 l113 -36 270 0 270 0 0 535 0 535 -420 0 -420 0 0 315 0 315 45 0 45 0 0 -275 0 -275 375 0 375 0 0 530 0 530 -292 0 -293 -1 -90 -33z"/>
 </g>
<g id="layer102" fill="#2dadef" stroke="none">
 <path d="M300 1645 l0 -1105 491 0 490 0 87 36 c295 122 479 316 543 574 21 82 18 326 -5 415 -79 306 -306 517 -653 606 -42 10 -82 19 -90 19 -10 0 -13 -55 -13 -295 l0 -295 -45 0 -45 0 0 575 0 575 -380 0 -380 0 0 -1105z"/>
 <path d="M1150 2515 l0 -235 28 -6 c322 -71 552 -212 693 -422 28 -43 53 -79 55 -81 2 -2 4 217 4 487 l0 492 -390 0 -390 0 0 -235z"/>
 <path d="M2808 2239 l-3 -510 -219 206 -220 206 -49 -48 c-27 -26 -121 -123 -208 -215 l-160 -167 25 -79 c57 -182 56 -402 -3 -579 -63 -186 -204 -352 -396 -466 l-70 -42 215 -3 215 -2 214 221 214 221 221 -221 221 -221 425 0 425 1 -100 52 c-146 76 -247 149 -356 257 -336 335 -426 795 -240 1230 106 247 349 498 613 631 32 16 58 31 58 34 0 3 -184 5 -410 5 l-410 0 -2 -511z"/>
 <path d="M3805 2716 c-424 -155 -723 -458 -822 -835 -22 -83 -26 -117 -26 -251 0 -127 4 -169 21 -232 53 -196 135 -333 286 -484 158 -158 338 -266 563 -338 l113 -36 270 0 270 0 0 535 0 535 -420 0 -420 0 0 315 0 315 45 0 45 0 0 -275 0 -275 375 0 375 0 0 530 0 530 -292 0 -293 -1 -90 -33z"/>
 </g>

</svg>