<?xml version="1.0" encoding="UTF-8"?>
<!DOCTYPE svg PUBLIC "-//W3C//DTD SVG 1.1//EN"
  "http://www.w3.org/Graphics/SVG/1.1/DTD/svg11.dtd">
<!-- Created with Inkpad (http://www.taptrix.com/) --><svg xmlns:inkpad="http://taptrix.com/inkpad/svg_extensions" height="237pt" xmlns:xlink="http://www.w3.org/1999/xlink" xmlns="http://www.w3.org/2000/svg" width="380pt" version="1.1" viewBox="0,0,380,237">
<defs/>
<g id="layer101" inkpad:layerName="layer101">
<path d="M87.2+315.12L87.2+309.44L82.4+309.76C79.76+309.84+77.6+309.76+77.6+309.44C77.6+309.04+79.76+308.8+82.4+308.8L87.2+308.8L87.2+304.8L87.2+300.8L83.2+300.8C81.04+300.8+79.2+300.48+79.2+300.08C79.2+298.88+96.16+298.64+97.6+299.76C98.56+300.64+98.48+300.8+96.88+300.8C95.44+300.8+95.2+301.04+95.84+301.84C96.4+302.56+95.92+303.52+93.92+305.6C90.8+308.72+90.56+308.4+92.8+304L94.4+300.8L92+300.8C89.68+300.8+89.6+300.88+89.6+304.8L89.6+308.8L93.44+308.8C95.52+308.8+97.68+308.4+98.08+308C98.72+307.36+99.28+307.52+100+308.4C100.88+309.44+100.32+309.6+95.28+309.6L89.6+309.6L89.6+315.2C89.6+319.68+89.36+320.8+88.4+320.8C87.44+320.8+87.2+319.6+87.2+315.12Z" opacity="1" fill="#000000"/>
<path d="M143.2+317.2C143.2+313.6+143.2+313.6+140.48+313.6C138.96+313.6+137.44+313.28+137.2+312.8C136.88+312.32+138+312+139.92+312C142.64+312+143.2+311.76+143.2+310.48C143.2+309.28+142.56+308.8+140.64+308.56L138+308.24L140.64+308.16C142.8+308+143.2+307.68+143.2+305.92C143.2+304.08+142.96+303.92+140.24+304.16C137.68+304.4+137.2+304.72+136.16+307.6C135.6+309.36+134.8+312.8+134.56+315.2C134.16+318.32+133.68+319.6+132.8+319.6C131.92+319.6+131.68+318.88+131.84+316.96C131.92+315.2+131.6+314.24+130.8+313.84C129.76+313.44+129.84+313.2+131.2+312.48C132.24+312+133.92+309.44+135.12+306.64C136.24+303.84+137.52+301.6+137.84+301.6C138.24+301.6+138.24+302+138+302.4C137.68+302.88+138.4+303.2+139.68+303.2C141.84+303.2+141.92+302.96+140.4+298.8C140+297.6+140.32+297.68+141.92+299.44C143.12+300.72+143.84+302.08+143.6+302.48C143.28+302.88+143.52+303.2+144+303.2C144.48+303.2+145.44+301.92+146.08+300.4C146.72+298.88+147.52+297.6+148+297.6C149.12+297.6+149.76+299.04+148.8+299.6C148.4+299.84+147.6+300.8+147.12+301.76C146.32+303.2+146.4+303.28+148.64+302.8C150.08+302.56+151.28+302.64+151.6+303.12C151.92+303.68+150.96+304+148.88+304C145.92+304+145.6+304.16+145.6+306C145.6+308.08+147.04+308.64+148.48+307.2C149.12+306.56+149.68+306.72+150.4+307.6C151.28+308.64+151.04+308.8+148.48+308.8C146.08+308.8+145.6+309.04+145.6+310.48C145.6+312+145.92+312.16+148.32+311.76C150.24+311.44+151.44+311.68+152.08+312.48C152.88+313.44+152.4+313.6+149.28+313.6L145.6+313.6L145.6+316.72C145.6+318.72+145.2+320+144.4+320.32C143.44+320.64+143.2+320+143.2+317.2Z" opacity="1" fill="#000000"/>
<path d="M244.8+318.4L244.8+315.92L241.2+318C239.2+319.2+237.2+320+236.64+319.84C236+319.6+236.4+319.04+237.6+318.4C238.72+317.84+240.64+316.48+241.84+315.28L244.16+313.2L239.84+312.72L235.6+312.24L240.24+312.16C245.52+312+246.4+310.64+241.44+310.16L238+309.84L241.44+309.76C246.24+309.52+245.6+308+240.64+307.92C236.56+307.76+236.48+307.76+239.52+307.28C242.08+306.88+242.48+306.64+241.52+305.84C240.88+305.36+238.96+304.8+237.2+304.56C234.32+304.32+234.4+304.24+238.24+304.16L242.4+304L242.4+301.12C242.4+297.52+244.32+297.76+244.64+301.44C244.96+304.96+246.4+304.64+246.4+301.12C246.4+298.8+246.64+298.32+247.68+298.72C248.4+298.96+249.04+299.2+249.12+299.2C249.28+299.2+249.2+300.16+249.04+301.44L248.72+303.6L250+301.28C250.96+299.68+251.6+299.28+252.24+299.92C252.8+300.48+252.64+301.2+251.6+302.4C250.48+303.68+250.4+304+251.28+304C251.92+304+252.88+303.6+253.44+303.04C254.24+302.24+254.72+302.4+255.76+303.44C257.04+304.72+256.96+304.8+253.36+304.8C251.2+304.8+249.68+305.12+249.92+305.52C250.24+305.92+249.92+306.48+249.44+306.64C248.72+306.96+248.8+307.12+249.6+307.12C250.32+307.2+251.28+306.8+251.68+306.4C252.32+305.76+252.88+305.92+253.6+306.8C254.48+307.84+254.32+308+252.8+308C251.28+308+251.2+308.16+252+309.2C252.88+310.24+252.56+310.4+250.08+310.4C248.48+310.4+247.2+310.8+247.2+311.2C247.2+312.24+252.24+312.24+253.28+311.2C253.92+310.56+254.48+310.72+255.2+311.6C256.08+312.64+255.68+312.8+251.92+312.8L247.6+312.88L249.84+314.8C251.04+315.84+253.28+316.96+254.8+317.28C256.32+317.52+257.36+318.08+257.12+318.48C256.32+319.84+253.2+319.2+250.24+317.2L247.28+315.2L247.04+317.76C246.72+321.2+244.8+321.76+244.8+318.4ZM250+308.8C250.24+308.4+249.76+308+248.88+308C247.92+308+247.2+308.4+247.2+308.8C247.2+309.28+247.68+309.6+248.32+309.6C248.96+309.6+249.76+309.28+250+308.8ZM247.52+306C247.84+305.12+247.36+304.8+245.6+304.8C243.84+304.8+243.36+305.12+243.68+306C244+306.64+244.8+307.2+245.6+307.2C246.4+307.2+247.2+306.64+247.52+306Z" opacity="1" fill="#000000"/>
<path d="M288.48+320.16C288.88+319.84+290.64+318.48+292.4+317.12L295.6+314.8L292+314.32L288.4+313.84L293.04+313.76C296.64+313.6+297.6+313.36+297.6+312.32C297.6+311.2+297.04+311.12+294.4+311.52L291.2+312L291.2+308.4L291.2+304.8L289.04+306.16C287.04+307.52+287.04+307.36+289.76+303.36C291.36+301.12+292.8+298.8+292.96+298.24C293.2+297.68+293.92+297.52+294.8+297.92C295.92+298.32+296.08+298.64+295.36+299.36C293.84+300.88+294.24+301.6+296.4+301.6C298.64+301.6+298.72+301.36+297.6+299.12C296.64+297.36+297.04+297.2+299.28+298.4C300.08+298.88+300.8+299.76+300.8+300.4C300.8+301.76+304.08+302+305.28+300.8C305.92+300.16+306.48+300.32+307.2+301.2C308.08+302.24+307.68+302.4+304.08+302.4C301.68+302.4+300+302.72+300+303.28C300+303.76+301.2+304+302.8+303.92C304.32+303.76+306+304.08+306.56+304.64C307.28+305.36+306.72+305.6+303.76+305.6C301.52+305.6+300+306+300+306.48C300+307.12+301.04+307.2+303.12+306.88C304.96+306.64+306.48+306.72+306.8+307.2C307.12+307.68+305.92+308+303.68+308C301.52+308+300+308.4+300+308.88C300+309.44+301.44+309.68+303.76+309.44C306.24+309.28+307.6+309.52+307.76+310.24C308+310.88+306.88+311.2+303.84+311.2C300.48+311.2+299.44+311.52+299.44+312.4C299.44+313.84+304+314.08+305.28+312.8C305.92+312.16+306.48+312.32+307.2+313.2C308.08+314.24+307.76+314.4+304.32+314.4C300.8+314.4+300.64+314.48+302.08+315.6C302.88+316.24+304.8+316.96+306.16+317.28C307.6+317.52+308.56+318.08+308.32+318.48C307.52+319.84+304.08+319.2+301.68+317.12L299.2+315.04L299.2+317.92C299.2+319.52+298.88+320.8+298.4+320.8C298+320.8+297.6+319.76+297.6+318.4C297.6+316+296.56+315.2+295.6+316.8C295.28+317.28+293.68+318.32+292+319.2C288.8+320.88+287.12+321.28+288.48+320.16ZM298.4+308.8C298.4+308.4+297.36+308+296+308C294.72+308+293.6+308.4+293.6+308.8C293.6+309.28+294.72+309.6+296+309.6C297.36+309.6+298.4+309.28+298.4+308.8ZM298.4+306.4C298.4+306+297.36+305.6+296+305.6C294.72+305.6+293.6+306+293.6+306.4C293.6+306.88+294.72+307.2+296+307.2C297.36+307.2+298.4+306.88+298.4+306.4ZM298.4+303.2C298.4+302.8+297.36+302.4+296+302.4C294.72+302.4+293.6+302.8+293.6+303.2C293.6+303.68+294.72+304+296+304C297.36+304+298.4+303.68+298.4+303.2Z" opacity="1" fill="#000000"/>
<path d="M27.2+318.48C30.08+316.96+33.92+311.6+34.88+307.84L35.36+305.6L30.88+305.6C28.4+305.6+26.4+305.28+26.4+304.8C26.4+304.4+28.4+304+30.8+304L35.2+304L35.2+300.72C35.2+298.08+35.44+297.52+36.48+297.92C37.2+298.16+37.84+298.4+38+298.4C38.08+298.4+37.92+299.68+37.6+301.28L36.96+304.16L41.68+303.84C45.04+303.6+46.72+303.84+47.36+304.56C48+305.36+47.28+305.6+43.28+305.6L38.4+305.6L39.6+308.56C41.12+312.08+43.44+314.8+46.72+316.88L49.04+318.32L46.88+318.88C45.36+319.2+44.24+318.96+43.04+317.92C41.12+316.16+37.68+309.2+37.52+306.8C37.52+305.92+37.04+306.96+36.4+309.2C35.44+312.88+35.44+313.2+36.88+314.24C37.68+314.8+38.4+316+38.4+316.88C38.4+318.96+37.76+318.8+35.84+316.32C34.8+315.04+34+314.56+33.6+315.12C32.56+316.88+27.68+320+26.08+320C24.8+320+25.12+319.6+27.2+318.48Z" opacity="1" fill="#000000"/>
<path d="M188+315.52L188+311.12L185.68+312.72C182.24+315.2+181.76+314.8+184.56+311.84C187.68+308.4+191.2+303.12+191.2+301.68C191.2+300.88+190.24+300.72+187.2+300.96C185.04+301.2+183.2+301.04+183.2+300.72C183.2+300.32+187.28+300+192.32+300C197.84+300+201.68+299.68+202+299.2C202.4+298.56+202.88+298.64+203.68+299.28C205.6+300.88+204.96+301.2+199.6+301.2L194.4+301.2L192.32+304.64L190.24+308.16L195.68+307.84C199.76+307.68+201.2+307.84+201.12+308.64C201.04+309.12+200.96+311.92+200.96+314.8C200.88+317.68+200.48+320+200+320C199.6+320+199.2+319.44+199.2+318.8C199.2+317.84+198.16+317.6+194.4+317.6C190.64+317.6+189.6+317.84+189.6+318.8C189.6+319.44+189.28+320+188.8+320C188.4+320+188+318+188+315.52ZM199.2+312.8L199.2+308.8L194.4+308.8L189.6+308.8L189.6+312.8L189.6+316.8L194.4+316.8L199.2+316.8L199.2+312.8Z" opacity="1" fill="#000000"/>
<path d="M340.8+309.44L340.8+298.8L350.56+298.96L360.24+299.04L360.08+309.28C359.92+318.88+359.44+321.76+358.64+319.44C358.16+318.16+343.2+318+343.2+319.2C343.2+319.68+342.64+320+342+320C340.96+320+340.8+318.32+340.8+309.44ZM350.56+316.24C349.6+316+348.32+315.2+347.76+314.32C347.28+313.52+346+312.8+345.04+312.8C343.6+312.8+343.2+313.28+343.2+314.8C343.2+316.72+343.36+316.8+347.84+316.72C350.32+316.64+351.6+316.4+350.56+316.24ZM358.4+314.8C358.4+313.2+358+312.8+356.4+312.8C354.8+312.8+354.4+313.2+354.4+314.8C354.4+316.4+354.8+316.8+356.4+316.8C358+316.8+358.4+316.4+358.4+314.8ZM352.8+314C352.8+313.2+352+312.8+350.24+312.8C347.84+312.8+347.76+312.88+349.28+314C351.28+315.52+352.8+315.52+352.8+314ZM344.32+310.8C344+310.16+344.24+309.6+344.72+309.6C345.2+309.6+345.6+308.24+345.6+306.4C345.6+303.36+345.68+303.2+347.6+303.68C348.8+304+349.6+303.84+349.6+303.28C349.6+302.8+348.24+302.32+346.64+302.24L343.6+302.16L346.64+301.84C350.64+301.36+350.48+300+346.4+300L343.2+300L343.2+306C343.2+309.36+343.52+312+344+312C344.4+312+344.56+311.44+344.32+310.8ZM351.44+311.44C350.4+311.28+348.64+311.28+347.44+311.44C346.16+311.6+347.04+311.76+349.2+311.76C351.44+311.76+352.4+311.6+351.44+311.44ZM358.4+306L358.4+300L355.12+300C353.04+300+352.08+300.32+352.48+300.88C352.72+301.36+353.84+301.52+354.8+301.28C355.84+301.04+356.96+301.12+357.2+301.6C357.52+302.08+356.4+302.4+354.48+302.4C352.64+302.4+351.2+302.8+351.2+303.28C351.2+303.76+352.32+304+353.84+303.84C356.16+303.6+356.4+303.76+356.16+305.68C355.92+307.68+357.2+312+358+312C358.24+312+358.4+309.28+358.4+306Z" opacity="1" fill="#000000"/>
<path d="M82.56+304.8C81.68+303.04+81.28+301.6+81.6+301.6C82.4+301.6+85.6+305.2+85.6+306.24C85.6+308.48+84+307.68+82.56+304.8Z" opacity="1" fill="#000000"/>
<path d="M131.04+305.6C129.6+303.04+129.92+302.64+132.24+304.32C133.6+305.36+134.16+308+133.04+308C132.64+308+131.76+306.88+131.04+305.6Z" opacity="1" fill="#000000"/>
<path d="M133.28+301.2C131.52+298.56+131.68+298.24+134+299.36C136+300.24+136.64+301.92+135.28+302.72C134.88+302.96+134+302.32+133.28+301.2Z" opacity="1" fill="#000000"/>
<path d="M238.8+301.6C237.36+300+237.92+299.6+240.32+300.48C241.68+300.96+242.16+303.2+240.96+303.2C240.56+303.2+239.6+302.48+238.8+301.6Z" opacity="1" fill="#000000"/>
<path d="M62.64+284C58.8+281.68+57.28+278.8+57.28+274.08C57.28+266.48+61.2+262.4+68.32+262.4C72.4+262.4+77.12+265.52+75.52+267.12C74.96+267.76+74.16+267.44+72.8+266C71.44+264.56+70.08+264+68+264C60.24+264+57.52+276.4+64.08+281.92C67.36+284.72+70+284.56+72.8+281.6C74.4+279.92+75.28+279.44+75.68+280.08C76+280.64+75.2+282+73.68+283.36C70.64+286.08+66.4+286.32+62.64+284Z" opacity="1" fill="#000000"/>
<path d="M116.08+284.16C109.04+280.32+108.4+269.2+114.88+264.08C118.08+261.52+123.92+261.76+127.2+264.48C128.72+265.84+129.44+266.88+128.96+267.36C128.48+267.84+127.44+267.36+126.16+266.08C122.64+262.56+117.12+263.52+114.8+268C111.52+274.4+115.44+284+121.44+284C122.48+284+124.4+282.88+125.76+281.52C128.8+278.48+130.56+279.52+127.84+282.8C125.28+285.68+120+286.32+116.08+284.16Z" opacity="1" fill="#000000"/>
<path d="M150+283.04C149.36+281.44+147.76+277.52+146.48+274.24L144.08+268.4L144.08+276.64C144+283.36+143.76+284.8+142.8+284.8C141.76+284.8+141.6+283.04+141.6+273.6C141.6+262.48+141.6+262.4+143.44+262.4C144.96+262.4+145.68+263.52+148.32+270.4C150+274.8+151.68+278.4+152+278.4C152.32+278.4+154+274.8+155.68+270.4C158.32+263.52+159.04+262.4+160.56+262.4C162.4+262.4+162.4+262.48+162.4+273.6C162.4+284.24+162.32+284.8+160.8+284.8C159.28+284.8+159.2+284.24+159.12+275.84L159.12+266.8L155.52+276C153.52+281.04+151.76+285.36+151.52+285.52C151.36+285.68+150.72+284.56+150+283.04Z" opacity="1" fill="#000000"/>
<path d="M266.4+283.84C261.28+280.4+259.52+274.16+261.92+268.4C264.4+262.56+273.52+260.32+278.16+264.32C279.76+265.76+280.16+266.56+279.52+267.12C278.96+267.76+278.16+267.44+276.8+266C274.16+263.2+269.76+263.28+266.96+266.08C260.08+272.96+266.72+287.04+274.96+283.04C276.8+282.16+277.28+281.44+277.44+278.56C277.6+276.32+278.08+275.2+278.88+275.2C279.68+275.2+280+276.16+280+278.8C280+281.76+279.68+282.56+278+283.68C274.56+285.92+269.6+286+266.4+283.84Z" opacity="1" fill="#000000"/>
<path d="M306.64+284C302.8+281.68+301.36+278.24+301.76+272.56C302.08+268.24+302.4+267.52+305.04+265.12C307.52+262.8+308.56+262.4+311.92+262.4C318.24+262.4+322.4+266.88+322.4+273.76C322.4+282.72+313.76+288.4+306.64+284ZM316+281.84C322+276.4+319.04+264+311.76+264C307.76+264+305.44+266.88+304.96+272.4C304.56+277.68+305.84+281.2+308.72+282.8C311.76+284.48+313.28+284.24+316+281.84Z" opacity="1" fill="#000000"/>
<path d="M330+284.64C326.8+282.88+326.4+281.6+326.4+271.84C326.4+264.24+326.64+262.4+327.52+262.4C328.4+262.4+328.72+264.32+328.96+271.6C329.2+281.84+330+283.44+334.48+283.44C338.56+283.44+339.2+281.76+339.2+271.44C339.2+265.92+339.52+262.4+340+262.4C340.48+262.4+340.8+266.24+340.8+272.32C340.8+282.16+340.8+282.32+338.72+283.92C336.4+285.76+332.56+286.08+330+284.64Z" opacity="1" fill="#000000"/>
<path d="M25.6+273.52L25.6+262.24L30.72+262.56C37.52+262.96+40+264.64+40+268.8C40+272.8+37.84+274.4+32.64+274.4L28.8+274.4L28.8+279.6C28.8+284.24+28.64+284.8+27.2+284.8C25.68+284.8+25.6+284.24+25.6+273.52ZM35.28+272C37.04+271.04+37.36+267.28+35.84+265.76C35.28+265.2+33.52+264.8+31.84+264.8L28.8+264.8L28.8+268.8C28.8+272.72+28.88+272.8+31.28+272.8C32.64+272.8+34.4+272.4+35.28+272Z" opacity="1" fill="#000000"/>
<path d="M38.4+284.4C38.4+283.6+46.56+263.6+47.12+262.96C47.6+262.48+50.8+269.44+56.56+283.84C56.8+284.4+56.32+284.8+55.28+284.8C54.08+284.8+53.2+283.92+52.32+281.6C51.04+278.48+50.96+278.4+47.04+278.4C43.12+278.4+43.04+278.48+41.84+281.6C41.12+283.36+40.08+284.8+39.44+284.8C38.88+284.8+38.4+284.64+38.4+284.4ZM50.4+276.48C50.4+276.32+49.6+274.4+48.72+272.24L47.04+268.4L46+270.8C43.52+276.64+43.6+276.8+47.12+276.8C48.96+276.8+50.4+276.64+50.4+276.48Z" opacity="1" fill="#000000"/>
<path d="M79.2+273.6C79.2+262.96+79.28+262.4+80.8+262.4C82.32+262.4+82.4+262.96+82.4+273.6C82.4+284.24+82.32+284.8+80.8+284.8C79.28+284.8+79.2+284.24+79.2+273.6Z" opacity="1" fill="#000000"/>
<path d="M87.2+273.6L87.2+262.4L93.6+262.4C98.72+262.4+100+262.64+100+263.6C100+264.56+98.96+264.8+95.2+264.8L90.4+264.8L90.4+268.8L90.4+272.8L94.8+272.8C97.2+272.8+99.2+273.2+99.2+273.6C99.2+274.08+97.2+274.4+94.8+274.4L90.4+274.4L90.4+279.6C90.4+284.24+90.24+284.8+88.8+284.8C87.28+284.8+87.2+284.24+87.2+273.6Z" opacity="1" fill="#000000"/>
<path d="M103.2+273.6C103.2+262.96+103.28+262.4+104.8+262.4C106.32+262.4+106.4+262.96+106.4+273.6C106.4+284.24+106.32+284.8+104.8+284.8C103.28+284.8+103.2+284.24+103.2+273.6Z" opacity="1" fill="#000000"/>
<path d="M168.64+273.6C171.12+267.44+173.28+262.4+173.52+262.4C174+262.4+182.4+283.12+182.4+284.24C182.4+284.56+181.76+284.8+181.04+284.8C180.16+284.8+179.12+283.6+178.24+281.6C176.96+278.48+176.8+278.4+172.96+278.4C169.04+278.4+168.96+278.48+167.68+281.6C166.96+283.36+165.92+284.8+165.28+284.8C164.48+284.8+165.44+281.68+168.64+273.6ZM176+276.24C176+275.36+172.88+267.44+172.8+268.16C172.8+268.48+172.08+270.56+171.2+272.8L169.6+276.8L172.8+276.8C174.56+276.8+176+276.56+176+276.24Z" opacity="1" fill="#000000"/>
<path d="M184.8+273.52L184.8+262.16L190.4+262.56C194.88+262.88+196.48+263.36+198+264.8C201.6+268.24+200.08+273.12+195.12+274.16L192.88+274.56L196.48+279.68C200.08+284.72+200.08+284.8+198.08+284.8C196.48+284.8+195.36+283.76+192.8+280C188.16+273.2+188.08+272.8+191.36+272.8C194.24+272.8+196.8+270.88+196.8+268.64C196.8+266.64+194+264.8+190.96+264.8L188+264.8L188+274.8C188+284.24+187.92+284.8+186.4+284.8C184.88+284.8+184.8+284.24+184.8+273.52Z" opacity="1" fill="#000000"/>
<path d="M204+273.6L204+262.4L207.2+262.4C214.56+262.4+219.2+266.72+216.72+271.12C215.52+273.2+215.52+273.44+217.28+275.52C219.76+278.32+219.68+280.4+217.2+282.8C215.52+284.56+214.56+284.8+209.6+284.8L204+284.8L204+273.6ZM214.48+281.52C217.52+278.48+214.72+274.4+209.44+274.4L206.4+274.4L206.4+278.8L206.4+283.2L209.6+283.2C211.76+283.2+213.36+282.64+214.48+281.52ZM212.96+271.44C216+268.72+213.84+264.8+209.12+264.8L206.4+264.8L206.4+268.8C206.4+272.72+206.4+272.8+208.96+272.8C210.32+272.8+212.16+272.24+212.96+271.44Z" opacity="1" fill="#000000"/>
<path d="M222.4+273.6C222.4+262.96+222.48+262.4+224+262.4C225.52+262.4+225.6+262.96+225.6+272.8L225.6+283.2L229.6+283.2C231.84+283.2+233.6+283.6+233.6+284C233.6+284.48+231.2+284.8+228+284.8L222.4+284.8L222.4+273.6Z" opacity="1" fill="#000000"/>
<path d="M236+273.6L236+262.4L242.4+262.4C247.52+262.4+248.8+262.64+248.8+263.6C248.8+264.56+247.76+264.8+244+264.8L239.2+264.8L239.2+268.8L239.2+272.8L243.6+272.8C246+272.8+248+273.2+248+273.6C248+274.08+246+274.4+243.6+274.4L239.2+274.4L239.2+278.8L239.2+283.2L244+283.2C246.64+283.2+248.8+283.52+248.8+284C248.8+284.48+246.16+284.8+242.4+284.8L236+284.8L236+273.6Z" opacity="1" fill="#000000"/>
<path d="M284+273.52L284+262.16L289.6+262.56C294.08+262.88+295.68+263.36+297.2+264.8C300.8+268.24+299.28+273.12+294.32+274.16L292.08+274.56L295.68+279.68C299.28+284.72+299.28+284.8+297.28+284.8C295.68+284.8+294.56+283.76+292+280C287.36+273.2+287.28+272.8+290.56+272.8C293.44+272.8+296+270.88+296+268.64C296+266.64+293.2+264.8+290.16+264.8L287.2+264.8L287.2+274.8C287.2+284.24+287.12+284.8+285.6+284.8C284.08+284.8+284+284.24+284+273.52Z" opacity="1" fill="#000000"/>
<path d="M346.4+273.6L346.4+262.4L349.84+262.4C357.28+262.4+360.8+264.56+360.8+269.12C360.8+272.48+358.24+274.4+353.6+274.4L349.6+274.4L349.6+279.6C349.6+284.24+349.44+284.8+348+284.8C346.48+284.8+346.4+284.24+346.4+273.6ZM356.32+271.52C358.08+269.84+357.92+266.64+356.08+265.6C355.2+265.2+353.44+264.8+352.08+264.8C349.68+264.8+349.6+264.88+349.6+268.8L349.6+272.8L352.32+272.8C353.84+272.8+355.68+272.24+356.32+271.52Z" opacity="1" fill="#000000"/>
<path d="M24+131.6L24+43.2L63.28+43.2L102.48+43.2L109.44+46.08C133.04+55.84+147.76+71.36+152.88+92C154.56+98.56+154.32+118.08+152.48+125.2C146.16+149.68+128+166.56+100.24+173.68C96.88+174.48+93.68+175.2+93.04+175.2C92.24+175.2+92+170.8+92+151.6L92+128L88.4+128L84.8+128L84.8+174L84.8+220L54.4+220L24+220L24+131.6Z" opacity="1" fill="#000000"/>
<path d="M92+201.2L92+182.4L94.24+181.92C120+176.24+138.4+164.96+149.68+148.16C151.92+144.72+153.92+141.84+154.08+141.68C154.24+141.52+154.4+159.04+154.4+180.64L154.4+220L123.2+220L92+220L92+201.2Z" opacity="1" fill="#000000"/>
<path d="M224.64+179.12L224.4+138.32L206.88+154.8L189.28+171.28L185.36+167.44C183.2+165.36+175.68+157.6+168.72+150.24L155.92+136.88L157.92+130.56C162.48+116+162.4+98.4+157.68+84.24C152.64+69.36+141.36+56.08+126+46.96L120.4+43.6L137.6+43.36L154.8+43.2L171.92+60.88L189.04+78.56L206.72+60.88L224.4+43.2L258.4+43.2L292.4+43.28L284.4+47.44C272.72+53.52+264.64+59.36+255.92+68C229.04+94.8+221.84+131.6+236.72+166.4C245.2+186.16+264.64+206.24+285.76+216.88C288.32+218.16+290.4+219.36+290.4+219.6C290.4+219.84+275.68+220+257.6+220L224.8+220L224.64+179.12Z" opacity="1" fill="#000000"/>
<path d="M304.4+217.28C270.48+204.88+246.56+180.64+238.64+150.48C236.88+143.84+236.56+141.12+236.56+130.4C236.56+120.24+236.88+116.88+238.24+111.84C242.48+96.16+249.04+85.2+261.12+73.12C273.76+60.48+288.16+51.84+306.16+46.08L315.2+43.2L336.8+43.2L358.4+43.2L358.4+86L358.4+128.8L324.8+128.8L291.2+128.8L291.2+154L291.2+179.2L294.8+179.2L298.4+179.2L298.4+157.2L298.4+135.2L328.4+135.2L358.4+135.2L358.4+177.6L358.4+220L335.04+220L311.6+219.92L304.4+217.28Z" opacity="1" fill="#000000"/>
</g>
<g id="layer102" inkpad:layerName="layer102">
<path d="M24+131.6L24+43.2L63.28+43.2L102.48+43.2L109.44+46.08C133.04+55.84+147.76+71.36+152.88+92C154.56+98.56+154.32+118.08+152.48+125.2C146.16+149.68+128+166.56+100.24+173.68C96.88+174.48+93.68+175.2+93.04+175.2C92.24+175.2+92+170.8+92+151.6L92+128L88.4+128L84.8+128L84.8+174L84.8+220L54.4+220L24+220L24+131.6Z" opacity="1" fill="#2dadef"/>
<path d="M92+201.2L92+182.4L94.24+181.92C120+176.24+138.4+164.96+149.68+148.16C151.92+144.72+153.92+141.84+154.08+141.68C154.24+141.52+154.4+159.04+154.4+180.64L154.4+220L123.2+220L92+220L92+201.2Z" opacity="1" fill="#2dadef"/>
<path d="M224.64+179.12L224.4+138.32L206.88+154.8L189.28+171.28L185.36+167.44C183.2+165.36+175.68+157.6+168.72+150.24L155.92+136.88L157.92+130.56C162.48+116+162.4+98.4+157.68+84.24C152.64+69.36+141.36+56.08+126+46.96L120.4+43.6L137.6+43.36L154.8+43.2L171.92+60.88L189.04+78.56L206.72+60.88L224.4+43.2L258.4+43.2L292.4+43.28L284.4+47.44C272.72+53.52+264.64+59.36+255.92+68C229.04+94.8+221.84+131.6+236.72+166.4C245.2+186.16+264.64+206.24+285.76+216.88C288.32+218.16+290.4+219.36+290.4+219.6C290.4+219.84+275.68+220+257.6+220L224.8+220L224.64+179.12Z" opacity="1" fill="#2dadef"/>
<path d="M304.4+217.28C270.48+204.88+246.56+180.64+238.64+150.48C236.88+143.84+236.56+141.12+236.56+130.4C236.56+120.24+236.88+116.88+238.24+111.84C242.48+96.16+249.04+85.2+261.12+73.12C273.76+60.48+288.16+51.84+306.16+46.08L315.2+43.2L336.8+43.2L358.4+43.2L358.4+86L358.4+128.8L324.8+128.8L291.2+128.8L291.2+154L291.2+179.2L294.8+179.2L298.4+179.2L298.4+157.2L298.4+135.2L328.4+135.2L358.4+135.2L358.4+177.6L358.4+220L335.04+220L311.6+219.92L304.4+217.28Z" opacity="1" fill="#2dadef"/>
</g>
</svg>
